PathFileType	4	(X/Y/Z)	C:\Users\Basilio\Documents\Thesis Gigler\squatting_fais\c3dfiles\044\SLS_back_pre3\markers_experimental.trc
DataRate	CameraRate	NumFrames	NumMarkers	Units	OrigDataRate	OrigDataStartFrame	OrigNumFrames
200.000000	200.000000	4	61	mm	200.000000	175	1405
Frame#	Time	FHD			LBHD			RBHD			C7			T10			LSHO			LUUPA			LMUPA			LDUPA			LLEP			LMEP			LUL			LRFIN			RSHO			RUPA1			RMUPA			RDUPA			RLEP			RMEP			RUL			LASI			RASI			USACR			LSACR			RSACR			LTHI1			LTHI2			LTHI3			LTHI4			LLFC			LMFC			LTIB1			LTIB2			LTIB3			LTIB4			LLMAL			LMMAL			LHEE			LMT1			LMT2			LMT5			RTHI			RTHI2			RTHI3			RTHI4			RLFC			RMFC			RTIB1			RTIB2			RTIB3			RTIB4			RLMAL			RHEE			RMT1			RMT2			RMT5			RMMAL			RUFIN			LRAD			*59			*60			
		X1	Y1	Z1	X2	Y2	Z2	X3	Y3	Z3	X4	Y4	Z4	X5	Y5	Z5	X6	Y6	Z6	X7	Y7	Z7	X8	Y8	Z8	X9	Y9	Z9	X10	Y10	Z10	X11	Y11	Z11	X12	Y12	Z12	X13	Y13	Z13	X14	Y14	Z14	X15	Y15	Z15	X16	Y16	Z16	X17	Y17	Z17	X18	Y18	Z18	X19	Y19	Z19	X20	Y20	Z20	X21	Y21	Z21	X22	Y22	Z22	X23	Y23	Z23	X24	Y24	Z24	X25	Y25	Z25	X26	Y26	Z26	X27	Y27	Z27	X28	Y28	Z28	X29	Y29	Z29	X30	Y30	Z30	X31	Y31	Z31	X32	Y32	Z32	X33	Y33	Z33	X34	Y34	Z34	X35	Y35	Z35	X36	Y36	Z36	X37	Y37	Z37	X38	Y38	Z38	X39	Y39	Z39	X40	Y40	Z40	X41	Y41	Z41	X42	Y42	Z42	X43	Y43	Z43	X44	Y44	Z44	X45	Y45	Z45	X46	Y46	Z46	X47	Y47	Z47	X48	Y48	Z48	X49	Y49	Z49	X50	Y50	Z50	X51	Y51	Z51	X52	Y52	Z52	X53	Y53	Z53	X54	Y54	Z54	X55	Y55	Z55	X56	Y56	Z56	X57	Y57	Z57	X58	Y58	Z58	X59	Y59	Z59	X60	Y60	Z60	X61	Y61	Z61	

176	0.875	-238.5202026367188	1806.922485351563	-961.536804199219	-365.7374877929688	1754.582885742188	-1038.718505859375	-405.2930603027345	1730.369262695313	-879.0673828125002	-396.9451293945314	1559.058471679688	-965.5106201171877	-374.6277770996094	1258.299194335938	-952.4436645507815	-305.3914184570313	1590.5966796875	-1108.67626953125	-140.1669616699219	1595.358032226563	-1201.435668945313	-114.7679901123047	1609.428588867188	-1159.581176757813	-71.20155334472658	1599.87451171875	-1199.914672851563	-13.62473773956299	1608.106323242188	-1188.605102539063	-12.10567092895508	1533.563842773438	-1177.57763671875	238.7872772216797	1656.208251953125	-1072.8525390625	256.4151611328126	1675.657348632813	-971.1362915039065	-308.0761718750001	1580.678344726563	-808.949401855469	-150.6507720947266	1581.995483398438	-712.2288818359376	-124.7759475708008	1599.40234375	-752.5042724609376	-81.93281555175783	1590.932250976563	-710.3505249023439	-22.57029914855957	1602.596801757813	-721.2357788085939	-13.84813213348389	1523.180053710938	-731.7011108398439	236.6726379394532	1651.473510742188	-827.1480102539065	-202.7112579345704	1066.85595703125	-1051.123657226563	-193.5033264160157	1055.789184570313	-833.034606933594	-365.8426208496094	1116.429809570313	-933.825622558594	-373.3013305664063	1083.777954101563	-959.346862792969	-369.2560424804688	1087.117553710938	-902.1481933593752	-303.2332763671876	829.2827148437502	-1114.014770507813	-271.8861083984376	750.4383544921876	-1112.0986328125	-223.8406982421876	751.7711791992189	-1107.21923828125	-300.1416625976563	699.0765380859376	-1098.077392578125	-287.7389831542969	538.9718017578126	-1081.129150390625	-280.0112915039063	535.4433593750001	-958.6265258789065	-266.5829162597657	364.2245178222657	-1006.654541015625	-290.8825378417969	315.9526062011719	-1078.067016601563	-261.5967102050782	315.6646118164063	-1040.824951171875	-277.3437194824219	238.4595031738282	-1010.669250488281	-328.6914367675782	122.3287200927735	-1056.36376953125	-307.6367797851563	129.4838562011719	-972.678405761719	-389.3946533203126	98.48063659667972	-1008.568298339844	-180.4990844726563	59.2410011291504	-985.3909301757815	-180.081039428711	60.77045822143556	-1032.927734375	-216.320785522461	46.40747833251954	-1079.383056640625	-291.1982116699219	791.1392211914065	-736.2650756835939	-250.1929016113282	738.2293701171876	-727.5293579101564	-217.4064178466797	739.8935546875001	-732.8826293945314	-273.7506713867188	656.8779296875001	-738.1295776367189	-275.9240417480469	544.6571655273439	-734.6589355468751	-279.9328308105469	525.7864990234376	-856.662048339844	-238.9842681884766	412.6068115234376	-746.2064819335939	-313.7858886718751	351.8336791992188	-692.7322387695314	-272.3809509277344	340.0793151855469	-708.9164428710939	-265.4625244140626	286.5310363769532	-729.2380981445314	-339.2684631347657	136.5058135986328	-697.7926635742189	-398.9960021972657	107.3083953857422	-741.2128906250001	-193.2582092285157	63.05794525146486	-765.2007446289064	-188.5768737792969	57.39398574829103	-728.3851318359376	-227.3087615966797	43.9437599182129	-676.0621337890626	-318.8226928710938	140.182357788086	-780.2490234375002	243.108871459961	1636.087768554688	-940.928894042969	nan	nan	nan	nan	nan	nan	nan	nan	nan	
177	0.88	-238.0184173583985	1806.962768554688	-962.3159179687502	-365.6483154296876	1754.501831054688	-1039.37353515625	-405.1929016113282	1730.3095703125	-879.7108154296877	-396.945770263672	1559.072021484375	-966.133728027344	-374.6904907226563	1258.2744140625	-953.0731201171877	-305.4735717773438	1590.596069335938	-1109.25048828125	-140.0194854736328	1595.23681640625	-1202.0078125	-115.0848922729492	1609.82373046875	-1160.189331054688	-71.2335662841797	1599.88671875	-1200.584106445313	-14.01303672790528	1608.386840820313	-1189.035400390625	-12.23566055297852	1533.571533203125	-1178.116943359375	238.9395446777344	1656.0283203125	-1073.304809570313	256.5359191894532	1675.611083984375	-971.6677246093752	-308.0885620117188	1580.668334960938	-809.5491333007815	-150.9766998291016	1582.587890625	-713.1437377929689	-124.7986526489258	1599.613037109375	-753.1040039062501	-81.79030609130861	1591.103393554688	-711.0996704101564	-22.58371543884278	1602.605346679688	-721.7616577148439	-13.88764762878418	1523.09033203125	-732.2742919921876	236.7642669677735	1651.339721679688	-827.7500000000002	-202.6859588623047	1066.936157226563	-1051.839477539063	-193.6058197021485	1055.76416015625	-833.6552734375002	-366.0780334472657	1116.44921875	-934.3264770507815	-373.3246459960938	1083.669311523438	-959.9853515625002	-369.3958129882813	1087.159912109375	-902.570739746094	-302.7924804687501	829.2329711914065	-1114.633911132813	-271.5928039550782	750.4011230468751	-1112.376831054688	-223.4390869140626	751.7690429687501	-1107.781616210938	-299.7280273437501	699.0303344726564	-1098.447265625	-287.0626525878907	538.9696044921876	-1081.417114257813	-279.6148986816407	535.6090698242189	-958.9266357421877	-266.0284729003907	363.9673767089844	-1007.007934570313	-290.3926086425782	315.8270874023438	-1078.203857421875	-261.0983581542969	315.7334899902344	-1040.99609375	-277.2850036621094	238.3369293212891	-1010.745910644531	-328.6390686035157	122.326644897461	-1056.380859375	-307.6383972167969	129.5012664794922	-972.6741333007815	-389.3936462402345	98.47888183593753	-1008.586181640625	-180.5144805908203	59.26325607299806	-985.366638183594	-180.0615844726563	60.78542327880861	-1032.959838867188	-216.280990600586	46.42317581176759	-1079.450927734375	-291.0575561523438	791.008239746094	-736.6657104492189	-249.841537475586	738.1011962890626	-727.9194335937501	-216.8595428466797	740.0191650390626	-733.3848266601564	-273.2282104492188	656.8330688476564	-738.4174194335939	-275.1872253417969	544.6024780273439	-734.9091796875001	-279.4036254882813	525.7106933593751	-856.8882446289065	-238.6051788330079	412.7723693847657	-746.3775024414064	-313.3147888183594	351.9691772460938	-693.0261230468751	-271.9815979003907	340.3212280273438	-709.1245117187501	-265.2811279296876	286.5169982910157	-729.2743530273439	-339.1093750000001	136.6193542480469	-697.8186645507814	-398.9308471679689	107.2823562622071	-741.2313232421876	-193.2536163330079	63.07287597656251	-765.2383422851564	-188.4420318603516	57.34046554565431	-728.3695068359376	-227.3099212646485	43.90332031250001	-676.0579833984376	-318.8021850585938	140.2544708251953	-780.243835449219	243.6020202636719	1636.88427734375	-941.413513183594	nan	nan	nan	nan	nan	nan	nan	nan	nan	
178	0.885	-238.0331115722657	1806.997314453125	-962.8982543945315	-364.7539978027344	1755.115966796875	-1040.1435546875	-405.3116149902345	1730.21337890625	-880.4396972656252	-396.8890380859376	1559.071044921875	-966.8666992187502	-374.7203063964844	1258.341064453125	-953.6240844726565	-305.5049438476563	1590.5869140625	-1109.82177734375	-139.9445190429688	1595.123413085938	-1202.651977539063	-114.8765869140625	1609.50439453125	-1160.81005859375	-71.43225860595705	1600.039428710938	-1201.138793945313	-13.45235347747803	1608.006103515625	-1189.619995117188	-12.37709426879883	1533.3603515625	-1178.56298828125	238.9561157226563	1656.103393554688	-1073.824096679688	256.5914306640626	1675.616455078125	-972.4392089843752	-307.7630310058594	1580.330444335938	-810.066101074219	-150.6792755126953	1582.053466796875	-713.3728637695314	-124.5744247436524	1599.711181640625	-753.7305297851564	-81.73875427246095	1590.936645507813	-711.7173461914064	-22.41854858398438	1602.48828125	-722.4166870117189	-13.89913368225098	1522.913940429688	-732.7391357421876	236.6909179687501	1651.324462890625	-828.2134399414065	-202.7090759277344	1066.883911132813	-1052.451782226563	-193.741195678711	1055.752685546875	-834.2186279296877	-366.2548828125001	1116.389404296875	-934.877868652344	-373.4560241699219	1083.59912109375	-960.526794433594	-369.5415344238282	1087.126098632813	-903.152770996094	-302.5049438476563	829.0621337890627	-1115.297485351563	-271.2241821289063	750.3316650390626	-1112.887451171875	-223.1226348876954	751.8468627929689	-1108.275146484375	-299.3264160156251	698.9075317382814	-1098.831420898438	-286.4919433593751	538.7104492187501	-1081.791625976563	-278.6755371093751	535.4177246093751	-959.2617187500002	-265.5168151855469	363.9059448242188	-1007.468322753906	-290.0798645019532	315.7525939941407	-1078.529418945313	-260.8096008300782	315.6351013183594	-1041.155883789063	-276.9402770996094	238.0813598632813	-1010.785034179688	-328.6197204589844	122.2679748535157	-1056.400390625	-307.6514282226563	129.5595397949219	-972.7141723632815	-389.4057617187501	98.5992126464844	-1008.473083496094	-180.5215606689453	59.28966140747072	-985.4421997070315	-180.0968322753907	60.77552032470705	-1032.955444335938	-216.4241943359376	46.48368835449219	-1079.413452148438	-290.6997680664063	790.9799804687502	-737.0918579101564	-249.6728515625001	738.2166748046876	-728.2167358398439	-216.6275939941407	739.9943847656251	-733.7212524414064	-272.9411315917969	656.7314453125001	-738.6654663085939	-274.6317138671876	544.6162109375001	-735.2840576171876	-278.7791137695313	525.6340332031251	-857.1006469726565	-238.1056671142579	412.6875915527345	-746.5129394531251	-312.9296875000001	352.1352844238282	-693.1051635742189	-271.5487365722657	340.3379211425782	-709.2109375000001	-264.9816284179688	286.4779052734376	-729.3892822265626	-339.0179748535157	136.635971069336	-697.8068237304689	-398.9150695800782	107.28466796875	-741.0948486328126	-193.2195434570313	63.0069923400879	-765.2131347656251	-188.5398864746094	57.28038787841798	-728.3371582031251	-227.2608184814454	43.85041427612305	-676.0880737304689	-318.6473083496094	140.2730560302735	-780.2119750976565	243.6851654052735	1636.838134765625	-941.915954589844	nan	nan	nan	nan	nan	nan	nan	nan	nan	
179	0.89	-237.8677978515626	1807.2197265625	-963.698425292969	-364.7313232421876	1754.903076171875	-1040.806640625	-405.108612060547	1730.336669921875	-881.1907958984377	-396.6668395996095	1559.051635742188	-967.5751953125002	-374.7703247070313	1258.379760742188	-954.0802001953127	-304.9976196289063	1590.519775390625	-1110.55859375	-139.790023803711	1595.072998046875	-1203.270629882813	-114.7687683105469	1609.367919921875	-1161.37060546875	-71.48664855957033	1600.1298828125	-1201.687133789063	-13.26538562774659	1608.017211914063	-1190.276977539063	-12.05684280395508	1533.159423828125	-1179.165405273438	239.1350860595704	1656.108764648438	-1074.4052734375	256.5788574218751	1675.550415039063	-972.8928833007815	-307.9030761718751	1580.578491210938	-810.914489746094	-150.6833038330078	1582.190795898438	-714.1005859375001	-124.4708709716797	1599.464721679688	-754.2368774414064	-81.72071075439455	1590.954223632813	-712.3346557617189	-22.28230857849121	1602.391357421875	-723.0892944335939	-13.86270523071289	1522.953002929688	-733.3620605468751	236.5755004882813	1651.240478515625	-828.5779418945315	-202.8335418701172	1066.814453125	-1053.070922851563	-193.801254272461	1055.69091796875	-834.7190551757815	-366.3231506347657	1116.309448242188	-935.422058105469	-373.5086059570313	1083.399536132813	-960.9733886718752	-369.6540832519532	1087.086303710938	-903.739929199219	-302.2742309570313	828.785583496094	-1115.852172851563	-271.0118408203126	750.2962646484376	-1113.162841796875	-222.6958770751954	751.7541503906251	-1108.759399414063	-298.9906005859376	698.8236694335939	-1099.260375976563	-285.8585510253907	538.6500854492189	-1082.451538085938	-277.6918945312501	535.3699951171876	-959.747009277344	-264.8632812500001	363.9805297851563	-1007.775634765625	-289.6764831542969	315.6761169433594	-1078.736450195313	-260.5982971191407	315.6370849609376	-1041.3759765625	-276.7830505371094	237.9220275878907	-1010.905212402344	-328.5892333984376	122.2778015136719	-1056.42529296875	-307.6748352050782	129.5926818847657	-972.7685546875002	-389.4255981445314	98.71253967285159	-1008.451416015625	-180.4679565429688	59.19299316406251	-985.4014282226565	-180.0664215087891	60.7551612854004	-1032.997680664063	-216.9129943847657	47.52154159545899	-1079.298095703125	-290.4498596191407	790.877624511719	-737.5892944335939	-249.3055877685547	738.2343139648439	-728.6823730468751	-216.4282989501954	739.9938964843751	-734.3135986328126	-272.6027526855469	656.6211547851564	-738.9772949218751	-274.1397094726563	544.5806884765626	-735.3746337890626	-278.2448730468751	525.5582275390626	-857.324401855469	-237.8517761230469	412.7637939453126	-746.5714111328126	-312.4398803710938	352.2364501953126	-693.3895263671876	-271.1477355957032	340.3614501953126	-709.4166259765626	-264.6483459472657	286.3153991699219	-729.3911132812501	-338.9335937500001	136.7389068603516	-697.7999877929689	-398.7962036132814	107.3653030395508	-741.1986083984376	-193.236312866211	63.01336669921876	-765.2482910156251	-188.5282897949219	57.21626663208009	-728.3325805664064	-227.3114624023438	43.82197570800782	-676.0263061523439	-318.7115478515626	140.347396850586	-780.342468261719	243.7764892578126	1636.79248046875	-942.4224853515627	nan	nan	nan	nan	nan	nan	nan	nan	nan	
